<svg width="1442" height="248" viewBox="0 0 1442 248" fill="none" xmlns="http://www.w3.org/2000/svg">
<path d="M1 2C0.447715 2 2.41411e-08 1.55228 0 1C-2.41411e-08 0.447715 0.447715 2.41411e-08 1 0L1 2ZM380.262 0.999983L380.262 -1.65781e-05L380.557 -1.6591e-05L380.805 0.16058L380.262 0.999983ZM760.188 247L760.188 248L759.893 248L759.645 247.839L760.188 247ZM1441 246L1442 246L1442 248L1441 248L1441 246ZM1 0L380.262 -1.65781e-05L380.262 1.99998L1 2L1 0ZM380.805 0.16058L760.732 246.161L759.645 247.839L379.718 1.83939L380.805 0.16058ZM760.188 246L1441 246L1441 248L760.188 248L760.188 246Z" fill="white" fill-opacity="0.5"/>
</svg>
