<svg xmlns="http://www.w3.org/2000/svg" width="36" height="36" viewBox="0 0 36 36" fill="none" className="w-full h-full">
    <path d="M11.25 16.5C12.9069 16.5 14.25 15.1569 14.25 13.5C14.25 11.8431 12.9069 10.5 11.25 10.5H4.5V16.5H11.25ZM12.75 19.5H4.5V25.5H12.75C14.4069 25.5 15.75 24.1569 15.75 22.5C15.75 20.8431 14.4069 19.5 12.75 19.5ZM15.8448 17.3588C17.5858 18.4089 18.75 20.3186 18.75 22.5C18.75 25.8137 16.0637 28.5 12.75 28.5H1.5V7.5H11.25C14.5637 7.5 17.25 10.1863 17.25 13.5C17.25 14.9695 16.7217 16.3155 15.8448 17.3588ZM23.25 9H31.5V11.25H23.25V9ZM34.5 21.75H23.25V22.125C23.25 24.4032 25.0968 26.25 27.375 26.25C28.9781 26.25 30.3675 25.3356 31.0501 24H34.2507C33.4276 27.0254 30.6611 29.25 27.375 29.25C23.4399 29.25 20.25 26.0601 20.25 22.125V19.875C20.25 15.9399 23.4399 12.75 27.375 12.75C31.3101 12.75 34.5 15.9399 34.5 19.875V21.75ZM31.3447 18.75C30.855 17.0185 29.2632 15.75 27.375 15.75C25.4868 15.75 23.895 17.0185 23.4053 18.75H31.3447Z" fill="white" fillOpacity="0.4" />
</svg>