<svg xmlns="http://www.w3.org/2000/svg" width="36" height="36" viewBox="0 0 36 36" fill="none" className="w-full h-full">
    <path d="M29.9831 17.3574C29.8544 14.9177 28.997 12.6712 27.6245 10.8315C27.2624 11.2261 26.8178 11.6547 26.2436 12.1374C24.8822 13.2819 23.2331 14.3146 21.2751 15.1515C21.5247 15.6759 21.7544 16.1849 21.9564 16.6647L21.9582 16.6688C21.9978 16.7613 22.0319 16.8459 22.0982 17.0127C22.1069 17.0343 22.115 17.0546 22.1228 17.0738C24.3932 16.8183 26.7864 16.9124 29.1074 17.2268C29.4159 17.2685 29.7075 17.3123 29.9831 17.3574ZM15.9066 6.18195C16.1675 6.54932 16.4403 6.94289 16.7705 7.43067C17.6894 8.78835 18.594 10.2209 19.4406 11.6926C19.6124 11.9912 19.7805 12.2893 19.9446 12.5867C21.779 11.8649 23.2944 10.9542 24.5157 9.93729C25.0097 9.52595 25.4075 9.1395 25.7105 8.80458C23.6252 7.05416 20.9357 6 18 6C17.286 6 16.5864 6.06237 15.9066 6.18195ZM6.37899 14.9963C7.24718 14.9768 8.22701 14.9241 9.43955 14.8128C11.8504 14.5914 14.3121 14.1937 16.7324 13.5791C15.8579 12.0558 14.9083 10.535 13.9418 9.08067C13.4772 8.38163 13.0254 7.72488 12.6823 7.23963C9.59312 8.7692 7.25691 11.5899 6.37899 14.9963ZM8.67549 25.554C9.25667 24.704 10.0209 23.7471 11.037 22.7061C13.218 20.4717 15.7929 18.7317 18.7709 17.771C18.8126 17.7587 18.8406 17.7504 18.864 17.7435C18.6165 17.1977 18.3843 16.7108 18.1505 16.2513C15.3965 17.0531 12.4955 17.5545 9.60419 17.8143C8.19479 17.9409 6.93008 17.9972 6 18.0066C6.00153 20.8668 7.00373 23.493 8.67549 25.554ZM22.5068 29.1249C22.3502 28.3118 22.1504 27.4059 21.8849 26.361C21.4034 24.4668 20.8002 22.518 20.0595 20.5617C17.0568 21.6515 14.6636 23.2461 12.8146 25.1474C11.9236 26.0636 11.2687 26.9306 10.8396 27.6305C12.8384 29.1191 15.3164 30 18 30C19.5939 30 21.1154 29.6892 22.5068 29.1249ZM25.3167 27.5121C27.611 25.7448 29.2478 23.166 29.7978 20.2055C29.288 20.0798 28.641 19.9508 27.9294 19.8519C26.3634 19.6346 24.7521 19.5983 23.1614 19.8027C23.84 21.7146 24.3963 23.5998 24.8412 25.4042C25.0355 26.1921 25.1937 26.9037 25.3167 27.5121ZM18 33C9.71573 33 3 26.2842 3 18C3 9.71573 9.71573 3 18 3C26.2842 3 33 9.71573 33 18C33 26.2842 26.2842 33 18 33Z" fill="white" fillOpacity="0.4" />
</svg>