<svg width="397" height="397" viewBox="0 0 397 397" fill="none" xmlns="http://www.w3.org/2000/svg">
<g clip-path="url(#clip0_14_3)">
<path d="M51.0684 112.911C52.5425 108.347 54.2127 103.857 56.0739 99.4517L142.452 13.0741C146.857 11.2129 151.347 9.54272 155.911 8.0686L51.0684 112.911Z" fill="url(#paint0_linear_14_3)"/>
<path d="M45.5098 135.376C46.1376 131.783 46.8814 128.221 47.7389 124.694L167.695 4.73834C171.222 3.88074 174.784 3.13698 178.377 2.50916L45.5098 135.376Z" fill="url(#paint1_linear_14_3)"/>
<path d="M43.2891 154.504C43.4702 151.405 43.7361 148.321 44.0854 145.255L188.255 1.08498C191.321 0.735618 194.405 0.469788 197.504 0.288696L43.2891 154.504Z" fill="url(#paint2_linear_14_3)"/>
<path d="M43.1497 171.549C43.0917 170.166 43.0506 168.781 43.0262 167.395C43.0019 166.008 42.9945 164.624 43.004 163.241L206.241 0.00396865C207.624 -0.00547171 209.008 0.00192096 210.395 0.0262434C211.781 0.0505578 213.166 0.0917374 214.549 0.149661L43.1497 171.549Z" fill="url(#paint3_linear_14_3)"/>
<path d="M44.5124 187.095C44.1749 184.568 43.8932 182.031 43.668 179.486L222.487 0.666992C225.032 0.892198 227.569 1.17396 230.096 1.51149L44.5124 187.095Z" fill="url(#paint4_linear_14_3)"/>
<path d="M47.0507 201.462C46.5349 199.123 46.0673 196.772 45.6484 194.411L237.411 2.64856C239.772 3.06743 242.123 3.5351 244.462 4.05092L47.0507 201.462Z" fill="url(#paint5_linear_14_3)"/>
<path d="M50.5654 214.853C49.8992 212.671 49.2757 210.476 48.6953 208.27L251.269 5.69604C253.475 6.27642 255.67 6.89995 257.852 7.56612L50.5654 214.853Z" fill="url(#paint6_linear_14_3)"/>
<path d="M54.9234 227.404C54.1259 225.359 53.3667 223.3 52.6465 221.227L264.227 9.64624C266.3 10.3665 268.359 11.1256 270.404 11.9232L54.9234 227.404Z" fill="url(#paint7_linear_14_3)"/>
<path d="M60.028 239.206C59.1123 237.283 58.2317 235.346 57.3867 233.394L276.394 14.3866C278.346 15.2316 280.283 16.1122 282.206 17.0278L60.028 239.206Z" fill="url(#paint8_linear_14_3)"/>
<path d="M65.815 250.326C64.7906 248.516 63.7987 246.689 62.8398 244.847L287.848 19.8391C289.69 20.798 291.517 21.7899 293.327 22.8143L65.815 250.326Z" fill="url(#paint9_linear_14_3)"/>
<path d="M72.2371 260.811C71.1106 259.107 70.0146 257.384 68.9492 255.646L298.647 25.9484C300.385 27.0137 302.108 28.1097 303.812 29.2362L72.2371 260.811Z" fill="url(#paint10_linear_14_3)"/>
<path d="M79.2594 270.694C78.0354 269.089 76.8401 267.466 75.6738 265.826L308.826 32.6741C310.466 33.8404 312.089 35.0357 313.694 36.2597L79.2594 270.694Z" fill="url(#paint11_linear_14_3)"/>
<path d="M86.8638 279.997C85.5453 278.49 84.2539 276.963 82.9902 275.417L318.417 39.9906C319.963 41.2544 321.49 42.5458 322.997 43.8643L86.8638 279.997Z" fill="url(#paint12_linear_14_3)"/>
<path d="M95.0353 288.732C93.6237 287.32 92.2381 285.887 90.8789 284.435L327.434 47.8798C328.886 49.239 330.319 50.6246 331.731 52.0362L95.0353 288.732Z" fill="url(#paint13_linear_14_3)"/>
<path d="M125.848 21.2245L64.2246 82.8479C71.4039 70.1038 80.3127 58.3064 90.8096 47.8095C101.306 37.3126 113.104 28.4038 125.848 21.2245Z" fill="url(#paint14_linear_14_3)"/>
<path d="M344.932 283.656C343.458 288.219 341.788 292.71 339.927 297.115L253.549 383.492C249.144 385.354 244.654 387.024 240.09 388.498L344.932 283.656Z" fill="url(#paint15_linear_14_3)"/>
<path d="M350.49 261.19C349.862 264.783 349.118 268.346 348.261 271.873L228.305 391.828C224.778 392.686 221.216 393.43 217.623 394.057L350.49 261.19Z" fill="url(#paint16_linear_14_3)"/>
<path d="M352.711 242.062C352.53 245.161 352.264 248.246 351.915 251.312L207.745 395.482C204.679 395.831 201.595 396.097 198.496 396.278L352.711 242.062Z" fill="url(#paint17_linear_14_3)"/>
<path d="M352.85 225.018C352.908 226.401 352.949 227.785 352.974 229.171C352.998 230.558 353.005 231.943 352.996 233.325L189.759 396.563C188.376 396.572 186.992 396.565 185.605 396.54C184.219 396.516 182.834 396.475 181.451 396.417L352.85 225.018Z" fill="url(#paint18_linear_14_3)"/>
<path d="M351.488 209.471C351.825 211.999 352.107 214.536 352.332 217.08L173.513 395.9C170.968 395.674 168.431 395.393 165.904 395.055L351.488 209.471Z" fill="url(#paint19_linear_14_3)"/>
<path d="M348.948 195.104C349.464 197.444 349.932 199.794 350.35 202.155L158.588 393.918C156.227 393.499 153.876 393.031 151.537 392.516L348.948 195.104Z" fill="url(#paint20_linear_14_3)"/>
<path d="M345.433 181.714C346.099 183.896 346.723 186.09 347.303 188.297L144.729 390.87C142.523 390.29 140.328 389.667 138.146 389L345.433 181.714Z" fill="url(#paint21_linear_14_3)"/>
<path d="M341.077 169.163C341.874 171.208 342.634 173.267 343.354 175.339L131.773 386.92C129.7 386.2 127.641 385.441 125.596 384.643L341.077 169.163Z" fill="url(#paint22_linear_14_3)"/>
<path d="M335.973 157.361C336.889 159.283 337.769 161.221 338.614 163.173L119.607 382.18C117.655 381.335 115.718 380.454 113.795 379.539L335.973 157.361Z" fill="url(#paint23_linear_14_3)"/>
<path d="M330.186 146.241C331.21 148.051 332.202 149.877 333.161 151.719L108.153 376.727C106.311 375.768 104.484 374.777 102.674 373.752L330.186 146.241Z" fill="url(#paint24_linear_14_3)"/>
<path d="M323.765 135.755C324.891 137.46 325.987 139.182 327.053 140.921L97.3549 370.618C95.6161 369.553 93.8941 368.457 92.1895 367.33L323.765 135.755Z" fill="url(#paint25_linear_14_3)"/>
<path d="M316.74 125.873C317.964 127.477 319.16 129.1 320.326 130.741L87.1745 363.892C85.5338 362.726 83.9109 361.531 82.3066 360.307L316.74 125.873Z" fill="url(#paint26_linear_14_3)"/>
<path d="M309.136 116.57C310.454 118.077 311.747 119.604 313.01 121.15L77.5836 356.576C76.0378 355.312 74.5109 354.021 73.0039 352.702L309.136 116.57Z" fill="url(#paint27_linear_14_3)"/>
<path d="M68.5646 348.687C67.1118 347.327 65.6792 345.942 64.2676 344.53L300.963 107.835C302.374 109.247 303.76 110.679 305.119 112.132L68.5646 348.687Z" fill="url(#paint28_linear_14_3)"/>
<path d="M270.152 375.342L331.775 313.719C324.596 326.463 315.687 338.26 305.19 348.757C294.694 359.254 282.896 368.163 270.152 375.342Z" fill="url(#paint29_linear_14_3)"/>
<path d="M112.911 344.931C108.347 343.457 103.857 341.787 99.4515 339.926L13.0739 253.548C11.2127 249.143 9.54248 244.653 8.06836 240.089L112.911 344.931Z" fill="url(#paint30_linear_14_3)"/>
<path d="M135.377 350.491C131.784 349.863 128.222 349.119 124.695 348.262L4.73895 228.306C3.88135 224.779 3.13759 221.217 2.50977 217.624L135.377 350.491Z" fill="url(#paint31_linear_14_3)"/>
<path d="M154.504 352.711C151.405 352.53 148.321 352.264 145.255 351.915L1.08534 207.746C0.735985 204.679 0.470154 201.595 0.289062 198.496L154.504 352.711Z" fill="url(#paint32_linear_14_3)"/>
<path d="M171.549 352.85C170.166 352.908 168.781 352.949 167.395 352.974C166.008 352.998 164.624 353.005 163.241 352.996L0.00396865 189.759C-0.00547171 188.376 0.00192096 186.992 0.0262434 185.605C0.0505578 184.219 0.0917374 182.834 0.149661 181.451L171.549 352.85Z" fill="url(#paint33_linear_14_3)"/>
<path d="M187.094 351.489C184.567 351.826 182.03 352.108 179.485 352.333L0.666016 173.514C0.891222 170.969 1.17298 168.432 1.51051 165.905L187.094 351.489Z" fill="url(#paint34_linear_14_3)"/>
<path d="M201.462 348.949C199.123 349.465 196.772 349.933 194.411 350.351L2.64844 158.589C3.06731 156.228 3.53498 153.877 4.0508 151.538L201.462 348.949Z" fill="url(#paint35_linear_14_3)"/>
<path d="M214.852 345.434C212.67 346.1 210.475 346.724 208.269 347.304L5.69531 144.73C6.27569 142.524 6.89922 140.329 7.56539 138.147L214.852 345.434Z" fill="url(#paint36_linear_14_3)"/>
<path d="M227.404 341.077C225.359 341.874 223.3 342.634 221.227 343.354L9.64648 131.773C10.3667 129.7 11.1258 127.641 11.9234 125.596L227.404 341.077Z" fill="url(#paint37_linear_14_3)"/>
<path d="M239.206 335.972C237.283 336.888 235.346 337.768 233.394 338.613L14.3867 119.606C15.2317 117.654 16.1123 115.717 17.0279 113.794L239.206 335.972Z" fill="url(#paint38_linear_14_3)"/>
<path d="M250.327 330.186C248.517 331.21 246.69 332.202 244.848 333.161L19.8398 108.153C20.7987 106.311 21.7906 104.484 22.815 102.674L250.327 330.186Z" fill="url(#paint39_linear_14_3)"/>
<path d="M260.812 323.764C259.108 324.89 257.385 325.986 255.647 327.052L25.9492 97.3546C27.0145 95.6157 28.1105 93.8935 29.237 92.189L260.812 323.764Z" fill="url(#paint40_linear_14_3)"/>
<path d="M270.694 316.74C269.089 317.964 267.466 319.16 265.826 320.326L32.6738 87.1743C33.8401 85.5335 35.0354 83.9107 36.2594 82.3064L270.694 316.74Z" fill="url(#paint41_linear_14_3)"/>
<path d="M279.997 309.136C278.49 310.454 276.963 311.746 275.417 313.009L39.9902 77.5831C41.254 76.0373 42.5454 74.5105 43.8639 73.0034L279.997 309.136Z" fill="url(#paint42_linear_14_3)"/>
<path d="M288.731 300.964C287.319 302.375 285.886 303.761 284.434 305.12L47.8789 68.5655C49.2381 67.1127 50.6237 65.6802 52.0353 64.2686L288.731 300.964Z" fill="url(#paint43_linear_14_3)"/>
<path d="M21.2246 270.152L82.848 331.775C70.1039 324.596 58.3065 315.687 47.8096 305.191C37.3127 294.694 28.4039 282.896 21.2246 270.152Z" fill="url(#paint44_linear_14_3)"/>
<path d="M283.656 51.0685C288.219 52.5426 292.709 54.2128 297.115 56.074L383.492 142.452C385.353 146.857 387.024 151.347 388.498 155.911L283.656 51.0685Z" fill="url(#paint45_linear_14_3)"/>
<path d="M261.189 45.5092C264.782 46.137 268.345 46.8808 271.872 47.7384L391.827 167.693C392.685 171.221 393.428 174.783 394.056 178.376L261.189 45.5092Z" fill="url(#paint46_linear_14_3)"/>
<path d="M242.062 43.2885C245.161 43.4696 248.246 43.7355 251.312 44.0848L395.481 188.254C395.831 191.321 396.098 194.405 396.279 197.504L242.062 43.2885Z" fill="url(#paint47_linear_14_3)"/>
<path d="M225.018 43.1496C226.401 43.0917 227.786 43.0505 229.172 43.0262C230.559 43.0018 231.944 42.9944 233.326 43.0039L396.563 206.241C396.573 207.624 396.565 209.008 396.541 210.395C396.517 211.781 396.476 213.166 396.418 214.549L225.018 43.1496Z" fill="url(#paint48_linear_14_3)"/>
<path d="M209.471 44.5113C211.999 44.1738 214.536 43.8921 217.08 43.6669L395.899 222.486C395.674 225.031 395.392 227.567 395.055 230.095L209.471 44.5113Z" fill="url(#paint49_linear_14_3)"/>
<path d="M195.104 47.0507C197.443 46.5349 199.794 46.0673 202.155 45.6484L393.918 237.411C393.499 239.772 393.031 242.123 392.515 244.462L195.104 47.0507Z" fill="url(#paint50_linear_14_3)"/>
<path d="M181.713 50.566C183.895 49.8999 186.09 49.2763 188.297 48.696L390.87 251.27C390.29 253.476 389.666 255.671 389 257.853L181.713 50.566Z" fill="url(#paint51_linear_14_3)"/>
<path d="M169.162 54.923C171.207 54.1255 173.266 53.3663 175.338 52.6461L386.919 264.227C386.199 266.299 385.44 268.359 384.642 270.404L169.162 54.923Z" fill="url(#paint52_linear_14_3)"/>
<path d="M157.359 60.0278C159.282 59.1121 161.22 58.2315 163.172 57.3865L382.179 276.394C381.334 278.346 380.453 280.283 379.537 282.206L157.359 60.0278Z" fill="url(#paint53_linear_14_3)"/>
<path d="M146.24 65.8142C148.05 64.7898 149.876 63.7979 151.718 62.839L376.726 287.847C375.767 289.689 374.775 291.516 373.751 293.326L146.24 65.8142Z" fill="url(#paint54_linear_14_3)"/>
<path d="M135.756 72.2361C137.461 71.1096 139.183 70.0136 140.922 68.9482L370.619 298.645C369.554 300.384 368.458 302.106 367.331 303.811L135.756 72.2361Z" fill="url(#paint55_linear_14_3)"/>
<path d="M125.873 79.2595C127.477 78.0355 129.1 76.8403 130.741 75.674L363.892 308.826C362.726 310.466 361.531 312.089 360.307 313.693L125.873 79.2595Z" fill="url(#paint56_linear_14_3)"/>
<path d="M116.57 86.8642C118.077 85.5457 119.604 84.2543 121.149 82.9905L356.576 318.417C355.312 319.963 354.021 321.489 352.702 322.996L116.57 86.8642Z" fill="url(#paint57_linear_14_3)"/>
<path d="M348.688 327.434C347.328 328.887 345.943 330.32 344.531 331.731L107.836 95.036C109.247 93.6244 110.68 92.2388 112.133 90.8796L348.688 327.434Z" fill="url(#paint58_linear_14_3)"/>
<path d="M375.343 125.848L313.719 64.2244C326.464 71.4037 338.261 80.3125 348.758 90.8094C359.255 101.306 368.164 113.104 375.343 125.848Z" fill="url(#paint59_linear_14_3)"/>
</g>
<defs>
<linearGradient id="paint0_linear_14_3" x1="90.8095" y1="47.81" x2="224.355" y2="178.762" gradientUnits="userSpaceOnUse">
<stop stop-color="#0075FE" stop-opacity="0.9"/>
<stop offset="1" stop-color="#0075FE" stop-opacity="0"/>
</linearGradient>
<linearGradient id="paint1_linear_14_3" x1="90.8103" y1="47.81" x2="224.356" y2="178.762" gradientUnits="userSpaceOnUse">
<stop stop-color="#0075FE" stop-opacity="0.9"/>
<stop offset="1" stop-color="#0075FE" stop-opacity="0"/>
</linearGradient>
<linearGradient id="paint2_linear_14_3" x1="90.8102" y1="47.8101" x2="224.355" y2="178.762" gradientUnits="userSpaceOnUse">
<stop stop-color="#0075FE" stop-opacity="0.9"/>
<stop offset="1" stop-color="#0075FE" stop-opacity="0"/>
</linearGradient>
<linearGradient id="paint3_linear_14_3" x1="90.8097" y1="47.81" x2="224.355" y2="178.762" gradientUnits="userSpaceOnUse">
<stop stop-color="#0075FE" stop-opacity="0.9"/>
<stop offset="1" stop-color="#0075FE" stop-opacity="0"/>
</linearGradient>
<linearGradient id="paint4_linear_14_3" x1="90.8107" y1="47.81" x2="224.356" y2="178.762" gradientUnits="userSpaceOnUse">
<stop stop-color="#0075FE" stop-opacity="0.9"/>
<stop offset="1" stop-color="#0075FE" stop-opacity="0"/>
</linearGradient>
<linearGradient id="paint5_linear_14_3" x1="90.8095" y1="47.81" x2="224.355" y2="178.762" gradientUnits="userSpaceOnUse">
<stop stop-color="#0075FE" stop-opacity="0.9"/>
<stop offset="1" stop-color="#0075FE" stop-opacity="0"/>
</linearGradient>
<linearGradient id="paint6_linear_14_3" x1="90.8089" y1="47.81" x2="224.354" y2="178.762" gradientUnits="userSpaceOnUse">
<stop stop-color="#0075FE" stop-opacity="0.9"/>
<stop offset="1" stop-color="#0075FE" stop-opacity="0"/>
</linearGradient>
<linearGradient id="paint7_linear_14_3" x1="90.81" y1="47.8101" x2="224.355" y2="178.762" gradientUnits="userSpaceOnUse">
<stop stop-color="#0075FE" stop-opacity="0.9"/>
<stop offset="1" stop-color="#0075FE" stop-opacity="0"/>
</linearGradient>
<linearGradient id="paint8_linear_14_3" x1="90.8098" y1="47.81" x2="224.355" y2="178.762" gradientUnits="userSpaceOnUse">
<stop stop-color="#0075FE" stop-opacity="0.9"/>
<stop offset="1" stop-color="#0075FE" stop-opacity="0"/>
</linearGradient>
<linearGradient id="paint9_linear_14_3" x1="90.8104" y1="47.81" x2="224.356" y2="178.762" gradientUnits="userSpaceOnUse">
<stop stop-color="#0075FE" stop-opacity="0.9"/>
<stop offset="1" stop-color="#0075FE" stop-opacity="0"/>
</linearGradient>
<linearGradient id="paint10_linear_14_3" x1="90.8106" y1="47.81" x2="224.356" y2="178.762" gradientUnits="userSpaceOnUse">
<stop stop-color="#0075FE" stop-opacity="0.9"/>
<stop offset="1" stop-color="#0075FE" stop-opacity="0"/>
</linearGradient>
<linearGradient id="paint11_linear_14_3" x1="90.8094" y1="47.81" x2="224.355" y2="178.762" gradientUnits="userSpaceOnUse">
<stop stop-color="#0075FE" stop-opacity="0.9"/>
<stop offset="1" stop-color="#0075FE" stop-opacity="0"/>
</linearGradient>
<linearGradient id="paint12_linear_14_3" x1="90.8092" y1="47.81" x2="224.355" y2="178.762" gradientUnits="userSpaceOnUse">
<stop stop-color="#0075FE" stop-opacity="0.9"/>
<stop offset="1" stop-color="#0075FE" stop-opacity="0"/>
</linearGradient>
<linearGradient id="paint13_linear_14_3" x1="90.8088" y1="47.81" x2="224.354" y2="178.762" gradientUnits="userSpaceOnUse">
<stop stop-color="#0075FE" stop-opacity="0.733333"/>
<stop offset="1" stop-color="#0075FE" stop-opacity="0"/>
</linearGradient>
<linearGradient id="paint14_linear_14_3" x1="90.8098" y1="47.81" x2="224.355" y2="178.762" gradientUnits="userSpaceOnUse">
<stop stop-color="#0075FE" stop-opacity="0.9"/>
<stop offset="1" stop-color="#0075FE" stop-opacity="0"/>
</linearGradient>
<linearGradient id="paint15_linear_14_3" x1="305.192" y1="348.757" x2="171.647" y2="217.805" gradientUnits="userSpaceOnUse">
<stop stop-color="#0075FE" stop-opacity="0.9"/>
<stop offset="1" stop-color="#0075FE" stop-opacity="0"/>
</linearGradient>
<linearGradient id="paint16_linear_14_3" x1="305.19" y1="348.757" x2="171.645" y2="217.805" gradientUnits="userSpaceOnUse">
<stop stop-color="#0075FE" stop-opacity="0.9"/>
<stop offset="1" stop-color="#0075FE" stop-opacity="0"/>
</linearGradient>
<linearGradient id="paint17_linear_14_3" x1="305.191" y1="348.757" x2="171.646" y2="217.805" gradientUnits="userSpaceOnUse">
<stop stop-color="#0075FE" stop-opacity="0.9"/>
<stop offset="1" stop-color="#0075FE" stop-opacity="0"/>
</linearGradient>
<linearGradient id="paint18_linear_14_3" x1="305.191" y1="348.757" x2="171.646" y2="217.805" gradientUnits="userSpaceOnUse">
<stop stop-color="#0075FE" stop-opacity="0.9"/>
<stop offset="1" stop-color="#0075FE" stop-opacity="0"/>
</linearGradient>
<linearGradient id="paint19_linear_14_3" x1="305.19" y1="348.757" x2="171.645" y2="217.805" gradientUnits="userSpaceOnUse">
<stop stop-color="#0075FE" stop-opacity="0.9"/>
<stop offset="1" stop-color="#0075FE" stop-opacity="0"/>
</linearGradient>
<linearGradient id="paint20_linear_14_3" x1="305.19" y1="348.757" x2="171.645" y2="217.805" gradientUnits="userSpaceOnUse">
<stop stop-color="#0075FE" stop-opacity="0.9"/>
<stop offset="1" stop-color="#0075FE" stop-opacity="0"/>
</linearGradient>
<linearGradient id="paint21_linear_14_3" x1="305.19" y1="348.757" x2="171.645" y2="217.805" gradientUnits="userSpaceOnUse">
<stop stop-color="#0075FE" stop-opacity="0.9"/>
<stop offset="1" stop-color="#0075FE" stop-opacity="0"/>
</linearGradient>
<linearGradient id="paint22_linear_14_3" x1="305.191" y1="348.757" x2="171.646" y2="217.805" gradientUnits="userSpaceOnUse">
<stop stop-color="#0075FE" stop-opacity="0.9"/>
<stop offset="1" stop-color="#0075FE" stop-opacity="0"/>
</linearGradient>
<linearGradient id="paint23_linear_14_3" x1="305.192" y1="348.757" x2="171.647" y2="217.805" gradientUnits="userSpaceOnUse">
<stop stop-color="#0075FE" stop-opacity="0.9"/>
<stop offset="1" stop-color="#0075FE" stop-opacity="0"/>
</linearGradient>
<linearGradient id="paint24_linear_14_3" x1="305.191" y1="348.757" x2="171.646" y2="217.805" gradientUnits="userSpaceOnUse">
<stop stop-color="#0075FE" stop-opacity="0.9"/>
<stop offset="1" stop-color="#0075FE" stop-opacity="0"/>
</linearGradient>
<linearGradient id="paint25_linear_14_3" x1="305.192" y1="348.757" x2="171.647" y2="217.805" gradientUnits="userSpaceOnUse">
<stop stop-color="#0075FE" stop-opacity="0.9"/>
<stop offset="1" stop-color="#0075FE" stop-opacity="0"/>
</linearGradient>
<linearGradient id="paint26_linear_14_3" x1="305.191" y1="348.757" x2="171.646" y2="217.805" gradientUnits="userSpaceOnUse">
<stop stop-color="#0075FE" stop-opacity="0.9"/>
<stop offset="1" stop-color="#0075FE" stop-opacity="0"/>
</linearGradient>
<linearGradient id="paint27_linear_14_3" x1="305.192" y1="348.757" x2="171.647" y2="217.805" gradientUnits="userSpaceOnUse">
<stop stop-color="#0075FE" stop-opacity="0.9"/>
<stop offset="1" stop-color="#0075FE" stop-opacity="0"/>
</linearGradient>
<linearGradient id="paint28_linear_14_3" x1="305.19" y1="348.757" x2="171.645" y2="217.805" gradientUnits="userSpaceOnUse">
<stop stop-color="#0075FE" stop-opacity="0.9"/>
<stop offset="1" stop-color="#0075FE" stop-opacity="0"/>
</linearGradient>
<linearGradient id="paint29_linear_14_3" x1="305.191" y1="348.757" x2="171.646" y2="217.805" gradientUnits="userSpaceOnUse">
<stop stop-color="#0075FE" stop-opacity="0.9"/>
<stop offset="1" stop-color="#0075FE" stop-opacity="0"/>
</linearGradient>
<linearGradient id="paint30_linear_14_3" x1="47.8098" y1="305.19" x2="178.762" y2="171.645" gradientUnits="userSpaceOnUse">
<stop stop-color="#0075FE"/>
<stop offset="1" stop-color="#0075FE" stop-opacity="0"/>
</linearGradient>
<linearGradient id="paint31_linear_14_3" x1="47.8106" y1="305.19" x2="178.763" y2="171.645" gradientUnits="userSpaceOnUse">
<stop stop-color="#0075FE"/>
<stop offset="1" stop-color="#0075FE" stop-opacity="0"/>
</linearGradient>
<linearGradient id="paint32_linear_14_3" x1="47.8104" y1="305.19" x2="178.762" y2="171.645" gradientUnits="userSpaceOnUse">
<stop stop-color="#0075FE"/>
<stop offset="1" stop-color="#0075FE" stop-opacity="0"/>
</linearGradient>
<linearGradient id="paint33_linear_14_3" x1="47.81" y1="305.19" x2="178.762" y2="171.645" gradientUnits="userSpaceOnUse">
<stop stop-color="#0075FE"/>
<stop offset="1" stop-color="#0075FE" stop-opacity="0"/>
</linearGradient>
<linearGradient id="paint34_linear_14_3" x1="47.8091" y1="305.19" x2="178.761" y2="171.645" gradientUnits="userSpaceOnUse">
<stop stop-color="#0075FE"/>
<stop offset="1" stop-color="#0075FE" stop-opacity="0"/>
</linearGradient>
<linearGradient id="paint35_linear_14_3" x1="47.8099" y1="305.19" x2="178.762" y2="171.645" gradientUnits="userSpaceOnUse">
<stop stop-color="#0075FE"/>
<stop offset="1" stop-color="#0075FE" stop-opacity="0"/>
</linearGradient>
<linearGradient id="paint36_linear_14_3" x1="47.8092" y1="305.19" x2="178.761" y2="171.645" gradientUnits="userSpaceOnUse">
<stop stop-color="#0075FE"/>
<stop offset="1" stop-color="#0075FE" stop-opacity="0"/>
</linearGradient>
<linearGradient id="paint37_linear_14_3" x1="47.8103" y1="305.19" x2="178.762" y2="171.645" gradientUnits="userSpaceOnUse">
<stop stop-color="#0075FE"/>
<stop offset="1" stop-color="#0075FE" stop-opacity="0"/>
</linearGradient>
<linearGradient id="paint38_linear_14_3" x1="47.8101" y1="305.19" x2="178.762" y2="171.645" gradientUnits="userSpaceOnUse">
<stop stop-color="#0075FE"/>
<stop offset="1" stop-color="#0075FE" stop-opacity="0"/>
</linearGradient>
<linearGradient id="paint39_linear_14_3" x1="47.8107" y1="305.19" x2="178.763" y2="171.645" gradientUnits="userSpaceOnUse">
<stop stop-color="#0075FE"/>
<stop offset="1" stop-color="#0075FE" stop-opacity="0"/>
</linearGradient>
<linearGradient id="paint40_linear_14_3" x1="47.8108" y1="305.19" x2="178.763" y2="171.645" gradientUnits="userSpaceOnUse">
<stop stop-color="#0075FE"/>
<stop offset="1" stop-color="#0075FE" stop-opacity="0"/>
</linearGradient>
<linearGradient id="paint41_linear_14_3" x1="47.8097" y1="305.19" x2="178.762" y2="171.645" gradientUnits="userSpaceOnUse">
<stop stop-color="#0075FE"/>
<stop offset="1" stop-color="#0075FE" stop-opacity="0"/>
</linearGradient>
<linearGradient id="paint42_linear_14_3" x1="47.8096" y1="305.19" x2="178.762" y2="171.645" gradientUnits="userSpaceOnUse">
<stop stop-color="#0075FE"/>
<stop offset="1" stop-color="#0075FE" stop-opacity="0"/>
</linearGradient>
<linearGradient id="paint43_linear_14_3" x1="47.8091" y1="305.19" x2="178.761" y2="171.645" gradientUnits="userSpaceOnUse">
<stop stop-color="#0075FE"/>
<stop offset="1" stop-color="#0075FE" stop-opacity="0"/>
</linearGradient>
<linearGradient id="paint44_linear_14_3" x1="47.8101" y1="305.19" x2="178.762" y2="171.645" gradientUnits="userSpaceOnUse">
<stop stop-color="#0075FE"/>
<stop offset="1" stop-color="#0075FE" stop-opacity="0"/>
</linearGradient>
<linearGradient id="paint45_linear_14_3" x1="348.757" y1="90.8091" x2="217.805" y2="224.354" gradientUnits="userSpaceOnUse">
<stop stop-color="#0075FE" stop-opacity="0.9"/>
<stop offset="1" stop-color="#0075FE" stop-opacity="0"/>
</linearGradient>
<linearGradient id="paint46_linear_14_3" x1="348.756" y1="90.8092" x2="217.804" y2="224.354" gradientUnits="userSpaceOnUse">
<stop stop-color="#0075FE" stop-opacity="0.9"/>
<stop offset="1" stop-color="#0075FE" stop-opacity="0"/>
</linearGradient>
<linearGradient id="paint47_linear_14_3" x1="348.758" y1="90.8091" x2="217.806" y2="224.354" gradientUnits="userSpaceOnUse">
<stop stop-color="#0075FE" stop-opacity="0.9"/>
<stop offset="1" stop-color="#0075FE" stop-opacity="0"/>
</linearGradient>
<linearGradient id="paint48_linear_14_3" x1="348.758" y1="90.8091" x2="217.806" y2="224.354" gradientUnits="userSpaceOnUse">
<stop stop-color="#0075FE" stop-opacity="0.9"/>
<stop offset="1" stop-color="#0075FE" stop-opacity="0"/>
</linearGradient>
<linearGradient id="paint49_linear_14_3" x1="348.757" y1="90.8091" x2="217.805" y2="224.354" gradientUnits="userSpaceOnUse">
<stop stop-color="#0075FE" stop-opacity="0.9"/>
<stop offset="1" stop-color="#0075FE" stop-opacity="0"/>
</linearGradient>
<linearGradient id="paint50_linear_14_3" x1="348.757" y1="90.809" x2="217.804" y2="224.354" gradientUnits="userSpaceOnUse">
<stop stop-color="#0075FE" stop-opacity="0.9"/>
<stop offset="1" stop-color="#0075FE" stop-opacity="0"/>
</linearGradient>
<linearGradient id="paint51_linear_14_3" x1="348.757" y1="90.8091" x2="217.805" y2="224.354" gradientUnits="userSpaceOnUse">
<stop stop-color="#0075FE" stop-opacity="0.9"/>
<stop offset="1" stop-color="#0075FE" stop-opacity="0"/>
</linearGradient>
<linearGradient id="paint52_linear_14_3" x1="348.756" y1="90.8091" x2="217.804" y2="224.354" gradientUnits="userSpaceOnUse">
<stop stop-color="#0075FE" stop-opacity="0.9"/>
<stop offset="1" stop-color="#0075FE" stop-opacity="0"/>
</linearGradient>
<linearGradient id="paint53_linear_14_3" x1="348.756" y1="90.8091" x2="217.804" y2="224.354" gradientUnits="userSpaceOnUse">
<stop stop-color="#0075FE" stop-opacity="0.9"/>
<stop offset="1" stop-color="#0075FE" stop-opacity="0"/>
</linearGradient>
<linearGradient id="paint54_linear_14_3" x1="348.756" y1="90.8091" x2="217.804" y2="224.354" gradientUnits="userSpaceOnUse">
<stop stop-color="#0075FE" stop-opacity="0.9"/>
<stop offset="1" stop-color="#0075FE" stop-opacity="0"/>
</linearGradient>
<linearGradient id="paint55_linear_14_3" x1="348.758" y1="90.8091" x2="217.806" y2="224.354" gradientUnits="userSpaceOnUse">
<stop stop-color="#0075FE" stop-opacity="0.9"/>
<stop offset="1" stop-color="#0075FE" stop-opacity="0"/>
</linearGradient>
<linearGradient id="paint56_linear_14_3" x1="348.757" y1="90.809" x2="217.805" y2="224.354" gradientUnits="userSpaceOnUse">
<stop stop-color="#0075FE" stop-opacity="0.9"/>
<stop offset="1" stop-color="#0075FE" stop-opacity="0"/>
</linearGradient>
<linearGradient id="paint57_linear_14_3" x1="348.757" y1="90.8091" x2="217.805" y2="224.354" gradientUnits="userSpaceOnUse">
<stop stop-color="#0075FE" stop-opacity="0.9"/>
<stop offset="1" stop-color="#0075FE" stop-opacity="0"/>
</linearGradient>
<linearGradient id="paint58_linear_14_3" x1="348.758" y1="90.809" x2="217.806" y2="224.354" gradientUnits="userSpaceOnUse">
<stop stop-color="#0075FE" stop-opacity="0.9"/>
<stop offset="1" stop-color="#0075FE" stop-opacity="0"/>
</linearGradient>
<linearGradient id="paint59_linear_14_3" x1="348.758" y1="90.8091" x2="217.806" y2="224.354" gradientUnits="userSpaceOnUse">
<stop stop-color="#0075FE" stop-opacity="0.9"/>
<stop offset="1" stop-color="#0075FE" stop-opacity="0"/>
</linearGradient>
<clipPath id="clip0_14_3">
<rect width="397" height="397" fill="white"/>
</clipPath>
</defs>
</svg>
