<svg xmlns="http://www.w3.org/2000/svg" width="36" height="36" viewBox="0 0 36 36" fill="none" className="w-full h-full">
    <path d="M19.5422 3.00146C21.2303 3.00425 22.0857 3.01318 22.8249 3.03518L23.1161 3.04471C23.4524 3.05666 23.7842 3.07167 24.1842 3.09042C25.7804 3.16416 26.8692 3.41666 27.8255 3.78791C28.8141 4.16916 29.6492 4.68417 30.4829 5.51791C31.3154 6.35166 31.8305 7.18917 32.213 8.17542C32.5829 9.13041 32.8355 10.2204 32.9105 11.8167C32.9283 12.2167 32.9427 12.5485 32.9546 12.8848L32.964 13.176C32.9859 13.9151 32.996 14.7706 32.9991 16.4587L33.0003 17.5773C33.0005 17.7139 33.0005 17.8549 33.0005 18.0004L33.0003 18.4236L32.9994 19.5421C32.9966 21.2302 32.9877 22.0857 32.9657 22.8249L32.9561 23.116C32.9442 23.4523 32.9292 23.7841 32.9105 24.1842C32.8367 25.7803 32.5829 26.8692 32.213 27.8254C31.8317 28.8141 31.3154 29.6491 30.4829 30.4828C29.6492 31.3153 28.8104 31.8304 27.8255 32.2129C26.8692 32.5828 25.7804 32.8354 24.1842 32.9104C23.7842 32.9283 23.4524 32.9427 23.1161 32.9545L22.8249 32.964C22.0857 32.9859 21.2303 32.9959 19.5422 32.9991L18.4236 33.0003C18.287 33.0004 18.146 33.0004 18.0005 33.0004L17.5773 33.0003L16.4588 32.9994C14.7707 32.9965 13.9151 32.9877 13.176 32.9656L12.8848 32.956C12.5485 32.9442 12.2167 32.9292 11.8167 32.9104C10.2204 32.8366 9.13292 32.5828 8.17542 32.2129C7.18791 31.8316 6.35166 31.3153 5.51792 30.4828C4.68417 29.6491 4.17042 28.8103 3.78792 27.8254C3.41667 26.8692 3.16542 25.7803 3.09042 24.1842C3.0726 23.7841 3.05807 23.4523 3.04629 23.116L3.03686 22.8249C3.01491 22.0857 3.00491 21.2302 3.00167 19.5421L3.00147 16.4587C3.00426 14.7706 3.01319 13.9151 3.03519 13.176L3.04472 12.8848C3.05667 12.5485 3.07167 12.2167 3.09042 11.8167C3.16416 10.2192 3.41667 9.13167 3.78792 8.17542C4.16916 7.18791 4.68417 6.35166 5.51792 5.51791C6.35166 4.68417 7.18917 4.17041 8.17542 3.78791C9.13167 3.41666 10.2192 3.16542 11.8167 3.09042C12.2167 3.0726 12.5485 3.05806 12.8848 3.04628L13.176 3.03685C13.9151 3.0149 14.7707 3.0049 16.4588 3.00166L19.5422 3.00146ZM18.0005 10.5004C13.8561 10.5004 10.5004 13.8597 10.5004 18.0004C10.5004 22.1448 13.8597 25.5004 18.0005 25.5004C22.1448 25.5004 25.5005 22.141 25.5005 18.0004C25.5005 13.8561 22.1411 10.5004 18.0005 10.5004ZM18.0005 13.5004C20.4858 13.5004 22.5005 15.5143 22.5005 18.0004C22.5005 20.4858 20.4864 22.5004 18.0005 22.5004C15.5151 22.5004 13.5004 20.4864 13.5004 18.0004C13.5004 15.5151 15.5144 13.5004 18.0005 13.5004ZM25.8755 8.25041C24.8415 8.25041 24.0005 9.09027 24.0005 10.1241C24.0005 11.158 24.8403 11.9992 25.8755 11.9992C26.9093 11.9992 27.7505 11.1593 27.7505 10.1241C27.7505 9.09027 26.9079 8.24911 25.8755 8.25041Z" fill="white" fillOpacity="0.4" />
</svg>