<svg xmlns="http://www.w3.org/2000/svg" width="36" height="36" viewBox="0 0 36 36" fill="none" className="w-full h-full">
    <path d="M29.3367 29.3435H24.5669V21.8692C24.5669 20.0869 24.5307 17.7934 22.0813 17.7934C19.5944 17.7934 19.2145 19.7328 19.2145 21.7377V29.3435H14.4447V13.9737H19.0266V16.0687H19.0884C19.7287 14.8608 21.2855 13.5859 23.6113 13.5859C28.4443 13.5859 29.3381 16.7667 29.3381 20.907L29.3367 29.3435ZM9.05755 11.8706C7.52219 11.8706 6.28879 10.6279 6.28879 9.0992C6.28879 7.57188 7.52353 6.33043 9.05755 6.33043C10.5876 6.33043 11.8277 7.57188 11.8277 9.0992C11.8277 10.6279 10.5862 11.8706 9.05755 11.8706ZM11.4492 29.3435H6.66592V13.9737H11.4492V29.3435ZM31.7229 1.89478H4.27161C2.95769 1.89478 1.89474 2.93357 1.89474 4.21528V31.7849C1.89474 33.0678 2.95769 34.1053 4.27161 34.1053H31.719C33.0316 34.1053 34.1053 33.0678 34.1053 31.7849V4.21528C34.1053 2.93357 33.0316 1.89478 31.719 1.89478H31.7229Z" fill="white" fillOpacity="0.4"/>
</svg>