<svg width="62" height="62" viewBox="0 0 62 62" fill="none" xmlns="http://www.w3.org/2000/svg">
<path d="M39.0291 3L58.8485 3.64416L39.0291 22.5994V3ZM37.5894 4.05828V23.5886H19.1647C25.4477 17.2205 31.4728 10.602 37.5894 4.05828ZM57.7912 6.70369L60.3333 7.57785L51.1548 13.0297L57.7912 6.70369ZM8.07403 8.86609H12.1009L21.4819 19.1258L17.1176 23.5886H8.07403C8.07469 18.6779 8.07403 13.7743 8.07403 8.86609ZM6.63422 9.76326V14.019H2L6.63422 9.76326ZM9.08641 25.0609H37.2519L29.4006 46.5237L9.08641 25.0609ZM37.5894 28.3734V58.4167L28.4108 53.4019C31.4712 45.0581 34.5275 36.7193 37.5894 28.3734Z" fill="#0075FE"/>
</svg>
