<svg xmlns="http://www.w3.org/2000/svg" width="36" height="36" viewBox="0 0 36 36" fill="none" className="w-full h-full">
    <path d="M33.3188 8.48407C32.1737 8.99062 30.9593 9.32332 29.7159 9.47116C31.0259 8.68698 32.0061 7.45335 32.474 6.00007C31.2431 6.73141 29.8958 7.24615 28.4907 7.52191C27.3047 6.25659 25.647 5.53954 23.9127 5.54151C20.4489 5.54151 17.6396 8.34991 17.6396 11.8152C17.6396 12.3069 17.696 12.7836 17.8014 13.2436C12.5857 12.9811 7.96511 10.4851 4.87018 6.68911C4.31294 7.6465 4.02008 8.73477 4.02157 9.8425C4.02157 12.0189 5.12941 13.9399 6.81224 15.0645C5.81606 15.033 4.84183 14.764 3.97078 14.2796C3.96982 14.3059 3.96982 14.3323 3.96982 14.3572C3.96982 17.3976 6.13229 19.9338 9.00299 20.5096C8.46421 20.6554 7.90849 20.7291 7.35034 20.7286C6.94496 20.7286 6.55157 20.6913 6.16919 20.6179C6.96797 23.1097 9.2833 24.9238 12.0294 24.9736C9.8072 26.7177 7.06304 27.6639 4.23815 27.6598C3.73819 27.6603 3.23864 27.6307 2.74219 27.5716C5.61007 29.4153 8.94829 30.3937 12.3576 30.3901C23.8974 30.3901 30.207 20.8312 30.207 12.5417C30.207 12.2704 30.2004 11.9983 30.1884 11.73C31.4165 10.8427 32.4765 9.7435 33.3188 8.48407Z" fill="white" fillOpacity="0.4" />
</svg>